name C:\Users\u0093377\Documents\Projects\3-Antoinne\AdDB\\GRF\AdDB_Squat_2_GRF.mot
datacolumns 19
datarows 25
range 1.15100000 1.17500000
endheader

                time	     ground_force_vx	     ground_force_vy	     ground_force_vz	     ground_force_px	     ground_force_py	     ground_force_pz	   1_ground_force_vx	   1_ground_force_vy	   1_ground_force_vz	   1_ground_force_px	   1_ground_force_py	   1_ground_force_pz	     ground_torque_x	     ground_torque_y	     ground_torque_z	   1_ground_torque_x	   1_ground_torque_y	   1_ground_torque_z	
          1.15100000	        -28.61598937	        309.91539071	        -35.11345372	         -0.21317481	          0.00000000	          0.18452391	         29.12340545	        305.95850973	         42.61042206	         -0.47829000	          0.00000000	         -0.24084895	          0.00000000	         -0.33669538	          0.00000000	          0.00000000	          0.15575612	          0.00000000	
          1.15200000	        -28.60636359	        309.75900349	        -35.06658242	         -0.21315356	          0.00000000	          0.18443454	         29.10001548	        306.15503149	         42.61430399	         -0.47818025	          0.00000000	         -0.24085271	          0.00000000	         -0.33892231	          0.00000000	          0.00000000	          0.16174988	          0.00000000	
          1.15300000	        -28.59644292	        309.60193217	        -35.02029169	         -0.21313228	          0.00000000	          0.18434534	         29.07362632	        306.34756607	         42.61872988	         -0.47807041	          0.00000000	         -0.24085660	          0.00000000	         -0.34123640	          0.00000000	          0.00000000	          0.16763409	          0.00000000	
          1.15400000	        -28.58627254	        309.44420995	        -34.97450458	         -0.21311099	          0.00000000	          0.18425632	         29.04423159	        306.53627367	         42.62370659	         -0.47796053	          0.00000000	         -0.24086061	          0.00000000	         -0.34363957	          0.00000000	          0.00000000	          0.17340032	          0.00000000	
          1.15500000	        -28.57589432	        309.28584908	        -34.92914361	         -0.21308968	          0.00000000	          0.18416752	         29.01184679	        306.72132309	         42.62923588	         -0.47785070	          0.00000000	         -0.24086474	          0.00000000	         -0.34613338	          0.00000000	          0.00000000	          0.17904058	          0.00000000	
          1.15600000	        -28.56534681	        309.12684357	        -34.88413070	         -0.21306837	          0.00000000	          0.18407894	         28.97651084	        306.90289374	         42.63531436	         -0.47774096	          0.00000000	         -0.24086898	          0.00000000	         -0.34871887	          0.00000000	          0.00000000	          0.18454758	          0.00000000	
          1.15700000	        -28.55466579	        308.96717293	        -34.83938724	         -0.21304707	          0.00000000	          0.18399062	         28.93828434	        307.08118101	         42.64193396	         -0.47763140	          0.00000000	         -0.24087333	          0.00000000	         -0.35139667	          0.00000000	          0.00000000	          0.18991483	          0.00000000	
          1.15800000	        -28.54388524	        308.80680534	        -34.79483469	         -0.21302578	          0.00000000	          0.18390259	         28.89724707	        307.25639590	         42.64908200	         -0.47752209	          0.00000000	         -0.24087781	          0.00000000	         -0.35416692	          0.00000000	          0.00000000	          0.19513667	          0.00000000	
          1.15900000	        -28.53303816	        308.64570069	        -34.75039541	         -0.21300452	          0.00000000	          0.18381486	         28.85349639	        307.42875961	         42.65674141	         -0.47741310	          0.00000000	         -0.24088239	          0.00000000	         -0.35702939	          0.00000000	          0.00000000	          0.20020816	          0.00000000	
          1.16000000	        -28.52215687	        308.48381608	        -34.70599338	         -0.21298330	          0.00000000	          0.18372747	         28.80714567	        307.59849811	         42.66489106	         -0.47730451	          0.00000000	         -0.24088710	          0.00000000	         -0.35998339	          0.00000000	          0.00000000	          0.20512509	          0.00000000	
          1.16100000	        -28.51127412	        308.32111316	        -34.66155516	         -0.21296213	          0.00000000	          0.18364044	         28.75832270	        307.76583943	         42.67350606	         -0.47719640	          0.00000000	         -0.24089192	          0.00000000	         -0.36302781	          0.00000000	          0.00000000	          0.20988401	          0.00000000	
          1.16200000	        -28.50042408	        308.15756309	        -34.61701095	         -0.21294103	          0.00000000	          0.18355379	         28.70716747	        307.93101328	         42.68255807	         -0.47708885	          0.00000000	         -0.24089685	          0.00000000	         -0.36616105	          0.00000000	          0.00000000	          0.21448258	          0.00000000	
          1.16300000	        -28.48964230	        307.99314929	        -34.57229527	         -0.21292001	          0.00000000	          0.18346758	         28.65382874	        308.09425036	         42.69201543	         -0.47698193	          0.00000000	         -0.24090190	          0.00000000	         -0.36938122	          0.00000000	          0.00000000	          0.21891965	          0.00000000	
          1.16400000	        -28.47896512	        307.82787098	        -34.52734752	         -0.21289908	          0.00000000	          0.18338182	         28.59846023	        308.25578180	         42.70184346	         -0.47687573	          0.00000000	         -0.24090706	          0.00000000	         -0.37268634	          0.00000000	          0.00000000	          0.22319497	          0.00000000	
          1.16500000	        -28.46842948	        307.66174770	        -34.48211323	         -0.21287826	          0.00000000	          0.18329656	         28.54121721	        308.41584085	         42.71200493	         -0.47677032	          0.00000000	         -0.24091232	          0.00000000	         -0.37607435	          0.00000000	          0.00000000	          0.22730876	          0.00000000	
          1.16600000	        -28.45807282	        307.49482282	        -34.43654556	         -0.21285757	          0.00000000	          0.18321185	         28.48225376	        308.57466458	         42.72246066	         -0.47666577	          0.00000000	         -0.24091768	          0.00000000	         -0.37954302	          0.00000000	          0.00000000	          0.23126167	          0.00000000	
          1.16700000	        -28.44793287	        307.32716515	        -34.39060638	         -0.21283702	          0.00000000	          0.18312771	         28.42172264	        308.73249445	         42.73317048	         -0.47656217	          0.00000000	         -0.24092313	          0.00000000	         -0.38308996	          0.00000000	          0.00000000	          0.23505493	          0.00000000	
          1.16800000	        -28.43804708	        307.15887025	        -34.34426721	         -0.21281665	          0.00000000	          0.18304420	         28.35977801	        308.88957817	         42.74409430	         -0.47645959	          0.00000000	         -0.24092865	          0.00000000	         -0.38671260	          0.00000000	          0.00000000	          0.23869033	          0.00000000	
          1.16900000	        -28.42845195	        306.99006258	        -34.29751032	         -0.21279646	          0.00000000	          0.18296136	         28.29657755	        309.04617130	         42.75519219	         -0.47635811	          0.00000000	         -0.24093425	          0.00000000	         -0.39040824	          0.00000000	          0.00000000	          0.24217035	          0.00000000	
          1.17000000	        -28.41918255	        306.82089670	        -34.25032972	         -0.21277648	          0.00000000	          0.18287923	         28.23228264	        309.20253614	         42.76642405	         -0.47625783	          0.00000000	         -0.24093990	          0.00000000	         -0.39417414	          0.00000000	          0.00000000	          0.24549851	          0.00000000	
          1.17100000	        -28.41027282	        306.65155703	        -34.20273153	         -0.21275674	          0.00000000	          0.18279786	         28.16705788	        309.35893734	         42.77774951	         -0.47615883	          0.00000000	         -0.24094560	          0.00000000	         -0.39800740	          0.00000000	          0.00000000	          0.24867944	          0.00000000	
          1.17200000	        -28.40175603	        306.48225726	        -34.15473405	         -0.21273726	          0.00000000	          0.18271730	         28.10107085	        309.51563317	         42.78912792	         -0.47606123	          0.00000000	         -0.24095132	          0.00000000	         -0.40190506	          0.00000000	          0.00000000	          0.25171851	          0.00000000	
          1.17300000	        -28.39366535	        306.31323957	        -34.10636776	         -0.21271806	          0.00000000	          0.18263760	         28.03449238	        309.67286638	         42.80051823	         -0.47596513	          0.00000000	         -0.24095706	          0.00000000	         -0.40586419	          0.00000000	          0.00000000	          0.25462138	          0.00000000	
          1.17400000	        -28.38603416	        306.14477382	        -34.05767590	         -0.21269917	          0.00000000	          0.18255881	         27.96749743	        309.83086029	         42.81187921	         -0.47587063	          0.00000000	         -0.24096281	          0.00000000	         -0.40988193	          0.00000000	          0.00000000	          0.25739387	          0.00000000	
          1.17500000	        -28.37889539	        305.97715634	        -34.00871518	         -0.21268061	          0.00000000	          0.18248098	         27.90026435	        309.98981729	         42.82316976	         -0.47577782	          0.00000000	         -0.24096856	          0.00000000	         -0.41395545	          0.00000000	          0.00000000	          0.26004184	          0.00000000	
